<svg width="38" height="39" viewBox="0 0 38 39" fill="none" xmlns="http://www.w3.org/2000/svg">
<path d="M27.6708 30.5552C27.2841 31.7399 26.6044 32.8078 25.6949 33.6598C24.3424 34.9271 22.2554 35.4859 18.0833 36.6034C13.9112 37.7209 11.8242 38.2815 10.0203 37.8596C8.59501 37.5273 7.30022 36.7798 6.29969 35.7116C5.03233 34.3591 4.47174 32.2722 3.35424 28.1001L2.39771 24.5256C1.27837 20.3535 0.719623 18.2665 1.13961 16.4626C1.47247 15.037 2.22065 13.7422 3.28949 12.7419C4.64195 11.4746 6.72892 10.9158 10.901 9.79648C11.6892 9.58556 12.4052 9.39315 13.0565 9.22478" fill="#00C2FF"/>
<path d="M27.6708 30.5552C27.2841 31.7399 26.6044 32.8078 25.6949 33.6598C24.3424 34.9271 22.2554 35.4859 18.0833 36.6034C13.9112 37.7209 11.8242 38.2815 10.0203 37.8596C8.59501 37.5273 7.30022 36.7798 6.29969 35.7116C5.03233 34.3591 4.47174 32.2722 3.35424 28.1001L2.39771 24.5256C1.27837 20.3535 0.719623 18.2665 1.13961 16.4626C1.47247 15.037 2.22065 13.7422 3.28949 12.7419C4.64195 11.4746 6.72892 10.9158 10.901 9.79648C11.6892 9.58556 12.4052 9.39315 13.0565 9.22478" stroke="#00C2FF" stroke-width="1.5"/>
<path d="M34.8809 20.6994L35.8374 17.1249C36.9549 12.9528 37.5155 10.8677 37.0955 9.06197C36.7626 7.63641 36.0145 6.3416 34.9456 5.34131C33.5932 4.07395 31.5062 3.51521 27.3341 2.39771C23.162 1.27837 21.075 0.719623 19.2711 1.13961C17.8456 1.47247 16.5507 2.22065 15.5505 3.28949C14.4644 4.44768 13.8983 6.14428 13.0564 9.22663L12.605 10.901L11.6485 14.4755C10.5291 18.6476 9.97039 20.7327 10.3904 22.5385C10.7232 23.964 11.4714 25.2589 12.5403 26.2592C13.8927 27.5265 15.9797 28.0853 20.1518 29.2046C23.9113 30.2111 25.9779 30.7643 27.6708 30.5552C27.8558 30.533 28.0371 30.4997 28.2148 30.459C29.6399 30.1272 30.9346 29.3803 31.9354 28.3128C33.2028 26.9585 33.7615 24.8715 34.8809 20.6994Z" fill="white" stroke="#00C2FF" stroke-width="1.5"/>
<path d="M19.0898 15.8021L28.026 18.1962M17.6522 21.1638L23.014 22.5995" stroke="#00C2FF" stroke-width="1.5" stroke-linecap="round"/>
</svg>
